<svg width="1920" height="1040" viewBox="0 0 1920 1040" fill="none" xmlns="http://www.w3.org/2000/svg">
<g clip-path="url(#clip0__7__2)">
<line x1="0.500047" y1="2.18557e-08" x2="0.500002" y2="1040" stroke="#1B2337"/>
<line x1="80.5" y1="2.18557e-08" x2="80.5" y2="1040" stroke="#1B2337"/>
<line x1="160.5" y1="2.18557e-08" x2="160.5" y2="1040" stroke="#1B2337"/>
<line x1="240.5" y1="2.18557e-08" x2="240.5" y2="1040" stroke="#1B2337"/>
<line x1="320.5" y1="2.18557e-08" x2="320.5" y2="1040" stroke="#1B2337"/>
<line x1="400.5" y1="2.18557e-08" x2="400.5" y2="1040" stroke="#1B2337"/>
<line x1="480.5" y1="2.18557e-08" x2="480.5" y2="1040" stroke="#1B2337"/>
<line x1="560.5" y1="2.18557e-08" x2="560.5" y2="1040" stroke="#1B2337"/>
<line x1="640.5" y1="2.18557e-08" x2="640.5" y2="1040" stroke="#1B2337"/>
<line x1="720.5" y1="2.18557e-08" x2="720.5" y2="1040" stroke="#1B2337"/>
<line x1="800.5" y1="2.18557e-08" x2="800.5" y2="1040" stroke="#1B2337"/>
<line x1="880.5" y1="2.18557e-08" x2="880.5" y2="1040" stroke="#1B2337"/>
<line x1="960.5" y1="2.18557e-08" x2="960.5" y2="1040" stroke="#1B2337"/>
<line x1="1040.5" y1="2.18557e-08" x2="1040.5" y2="1040" stroke="#1B2337"/>
<line x1="1120.5" y1="2.18557e-08" x2="1120.5" y2="1040" stroke="#1B2337"/>
<line x1="1200.5" y1="2.18557e-08" x2="1200.5" y2="1040" stroke="#1B2337"/>
<line x1="1280.5" y1="2.18557e-08" x2="1280.5" y2="1040" stroke="#1B2337"/>
<line x1="1360.5" y1="2.18557e-08" x2="1360.5" y2="1040" stroke="#1B2337"/>
<line x1="1440.5" y1="2.18557e-08" x2="1440.5" y2="1040" stroke="#1B2337"/>
<line x1="1520.5" y1="2.18557e-08" x2="1520.5" y2="1040" stroke="#1B2337"/>
<line x1="1600.5" y1="2.18557e-08" x2="1600.5" y2="1040" stroke="#1B2337"/>
<line x1="1680.5" y1="2.18557e-08" x2="1680.5" y2="1040" stroke="#1B2337"/>
<line x1="1760.5" y1="2.18557e-08" x2="1760.5" y2="1040" stroke="#1B2337"/>
<line x1="1840.5" y1="2.18557e-08" x2="1840.5" y2="1040" stroke="#1B2337"/>
<line x1="4.37114e-08" y1="39.5" x2="1920" y2="39.5002" stroke="#1B2337"/>
<line x1="4.37114e-08" y1="119.5" x2="1920" y2="119.5" stroke="#1B2337"/>
<line x1="4.37114e-08" y1="199.5" x2="1920" y2="199.5" stroke="#1B2337"/>
<line x1="4.37114e-08" y1="279.5" x2="1920" y2="279.5" stroke="#1B2337"/>
<line x1="4.37114e-08" y1="359.5" x2="1920" y2="359.5" stroke="#1B2337"/>
<line x1="4.37114e-08" y1="439.5" x2="1920" y2="439.5" stroke="#1B2337"/>
<line x1="4.37114e-08" y1="519.5" x2="1920" y2="519.5" stroke="#1B2337"/>
<line x1="4.37114e-08" y1="599.5" x2="1920" y2="599.5" stroke="#1B2337"/>
<line x1="4.37114e-08" y1="679.5" x2="1920" y2="679.5" stroke="#1B2337"/>
<line x1="4.37114e-08" y1="759.5" x2="1920" y2="759.5" stroke="#1B2337"/>
<line x1="4.37114e-08" y1="839.5" x2="1920" y2="839.5" stroke="#1B2337"/>
<line x1="4.37114e-08" y1="919.5" x2="1920" y2="919.5" stroke="#1B2337"/>
<line x1="4.37114e-08" y1="999.5" x2="1920" y2="999.5" stroke="#1B2337"/>
</g>
<defs>
<clipPath id="clip0__7__2">
<rect width="1920" height="1040" fill="white"/>
</clipPath>
</defs>
</svg>
