<svg width="46" height="46" viewBox="0 0 46 46" fill="none" xmlns="http://www.w3.org/2000/svg">
<rect width="46" height="46" rx="23" fill="#1A2035"/>
<path d="M12.348 28.324C12.3053 28.324 12.2573 28.3133 12.204 28.292C12.1507 28.26 12.0973 28.228 12.044 28.196L6.46 24.388C6.31067 24.2813 6.19333 24.18 6.108 24.084C6.03333 23.9773 5.996 23.844 5.996 23.684V23.252C5.996 23.092 6.03333 22.964 6.108 22.868C6.19333 22.7613 6.31067 22.6547 6.46 22.548L12.044 18.74C12.0973 18.7187 12.1507 18.6973 12.204 18.676C12.2573 18.644 12.3053 18.628 12.348 18.628C12.4333 18.628 12.508 18.66 12.572 18.724C12.636 18.7773 12.668 18.852 12.668 18.948V20.42C12.668 20.5693 12.6253 20.692 12.54 20.788C12.4547 20.8733 12.3587 20.948 12.252 21.012L8.556 23.476L12.252 25.94C12.3587 26.004 12.4547 26.0787 12.54 26.164C12.6253 26.2493 12.668 26.372 12.668 26.532V27.988C12.668 28.0947 12.636 28.18 12.572 28.244C12.508 28.2973 12.4333 28.324 12.348 28.324ZM24.4544 29.844C24.3584 29.844 24.2784 29.8067 24.2144 29.732C24.1504 29.668 24.1184 29.5933 24.1184 29.508C24.1184 29.4547 24.129 29.4013 24.1504 29.348L29.5904 16.292C29.6224 16.2067 29.6757 16.1267 29.7504 16.052C29.8357 15.9667 29.9584 15.924 30.1184 15.924H31.3504C31.4464 15.924 31.5264 15.9613 31.5904 16.036C31.6544 16.1 31.6864 16.1747 31.6864 16.26C31.6864 16.3027 31.6757 16.356 31.6544 16.42L26.1984 29.476C26.1664 29.5507 26.1077 29.6307 26.0224 29.716C25.9477 29.8013 25.825 29.844 25.6544 29.844H24.4544ZM33.3901 28.324C33.3048 28.324 33.2301 28.2973 33.1661 28.244C33.1021 28.18 33.0701 28.0947 33.0701 27.988V26.532C33.0701 26.372 33.1128 26.2493 33.1981 26.164C33.2835 26.0787 33.3795 26.004 33.4861 25.94L37.1821 23.476L33.4861 21.012C33.3795 20.948 33.2835 20.8733 33.1981 20.788C33.1128 20.692 33.0701 20.5693 33.0701 20.42V18.948C33.0701 18.852 33.1021 18.7773 33.1661 18.724C33.2301 18.66 33.3048 18.628 33.3901 18.628C33.4435 18.628 33.4968 18.644 33.5501 18.676C33.6035 18.6973 33.6515 18.7187 33.6941 18.74L39.2781 22.548C39.4381 22.6547 39.5555 22.7613 39.6301 22.868C39.7048 22.964 39.7421 23.092 39.7421 23.252V23.684C39.7421 23.844 39.7048 23.9773 39.6301 24.084C39.5555 24.18 39.4381 24.2813 39.2781 24.388L33.6941 28.196C33.6515 28.228 33.6035 28.26 33.5501 28.292C33.4968 28.3133 33.4435 28.324 33.3901 28.324Z" fill="#00F5FF"/>
<path d="M15.2403 28.5C15.1229 28.5 15.0269 28.4627 14.9523 28.388C14.8776 28.3133 14.8403 28.2173 14.8403 28.1V17.7C14.8403 17.5827 14.8776 17.4867 14.9523 17.412C15.0269 17.3373 15.1229 17.3 15.2403 17.3H22.4883C22.6056 17.3 22.7016 17.3373 22.7763 17.412C22.8509 17.4867 22.8883 17.5827 22.8883 17.7V18.98C22.8883 19.0867 22.8509 19.1773 22.7763 19.252C22.7016 19.3267 22.6056 19.364 22.4883 19.364H17.3043V21.876H22.1363C22.2536 21.876 22.3496 21.9133 22.4243 21.988C22.4989 22.0627 22.5363 22.1587 22.5363 22.276V23.46C22.5363 23.5667 22.4989 23.6573 22.4243 23.732C22.3496 23.8067 22.2536 23.844 22.1363 23.844H17.3043V26.436H22.6163C22.7336 26.436 22.8296 26.4733 22.9043 26.548C22.9789 26.6227 23.0163 26.7187 23.0163 26.836V28.1C23.0163 28.2173 22.9789 28.3133 22.9043 28.388C22.8296 28.4627 22.7336 28.5 22.6163 28.5H15.2403Z" fill="white"/>
</svg>
